# xmcd
#
# Track frame offsets:
# 150
# 14562
# 30810
# 45922
# 59812
# 75577
# 93380
# 105080
# 122497
# 140145
# 152690
# 165032
# 173450
#
# Disc length: 2489 seconds
#
#
# Revision: 10
# Processed by: cddbd v1.5.1PL2 Copyright (c) Steve Scherf et al.
# Submitted via: FreeRIP 2.942 
#
DISCID=8909b70d
DTITLE=Marisa Monte - Mem_rias, Cr_nicas e Declara__es de Amor
DYEAR=2000
DGENRE=Vise
TTITLE0=Amor I love you
TTITLE1=N_o v_ embora
TTITLE2=O que me importa
TTITLE3=N_o - f_cil
TTITLE4=Perd_o voc_
TTITLE5=Tema de amor
TTITLE6=Abolol_
TTITLE7=Para ver as meninas
TTITLE8=Cinco minutos
TTITLE9=Gentileza
TTITLE10=_gua tamb_m - mar
TTITLE11=Gotas de luar
TTITLE12=Sou seu sabi_
EXTD=YEAR: 2000
EXTT0=
EXTT1=
EXTT2=
EXTT3=
EXTT4=
EXTT5=
EXTT6=
EXTT7=
EXTT8=
EXTT9=
EXTT10=
EXTT11=
EXTT12=
PLAYORDER=
